/* XPM */
static const char *ecaLogo64_xpm[] = {
"64 64 5 1 ",
"  c #ED1C24",
". c #22B14C",
"X c #FFF200",
"o c #3F48CC",
"O c none",
/* pixels */
"OOOOOOOOOOOOOOOOOOOOOOOOOOOOOOOOOOOOOOOOOOOOOOOOOOOOOOOOOOOOOOOO",
"OOOOOOOOOOOOOOOOOOOOOOOOOOOOOOOOOOOOOOOOOOOOOOOOOOOOOOOOOOOOOOOO",
"OOOOOOOOOOOOOOOOOOOOOOOOOOOOOOOOOOOOOOOOOOOOOOOOOOOOOOOOOOOOOOOO",
"OOOOOOOOOOOOOOOOOOOOOOOOOOOOOOOOOOOOOOOOOOOOOOOOOOOOOOOOOOOOOOOO",
"OOOOOOOOOOOOOOOOOOOOOOOOOOOOOOOOOOOOOOOOOOO..OOOOOOOOOOOOOOOOOOO",
"OOOOOOOOOOOOOOOOOOOOOOOOOOOOOOOOOOOOOOOOOOO..OOOOOOOOOOOOOOOOOOO",
"OOOOOOOOOOOOOOOOOOOOOOOOOOOOOOOOOOOOOOOOOOO....OOOOOOOOOOOOOOOOO",
"OOOOOOOOOOOOOOOOOOOOOOOOOOOOOOOOOOOOOOOOOOO....OOOOOOOOOOOOOOOOO",
"OOOOOOOOOOOOOOOOOOOOOOOOOOOOOOOOOOOOOOOOOOO....OOOOOOOOOOOOOOOOO",
"OOOOOOOOOOOOOOOOOOOOOOOOOOOOOOOOOOOOOOOOOOO......OOOOOOOOOOOOOOO",
"OOOOOOOOOOOOOOOOOOOOOOOOOOOOOOOOOOOOOOOOOOO......OOOOOOOOOOOOOOO",
"OOOOOOOOOOOOOOOOOOOOOOOOOOOOOOOOOOOOOOOOOOO........OOOOOOOOOOOOO",
"OOOOOOOOOOOOOOOOOOOOOOOOOOOOOOOOOOOOOOOOOOO........OOOOOOOOOOOOO",
"OOOOOOOOOOOOOOOOOOOOOOOOOOOOOOOOOOOOOOOOOOO..........OOOOOOOOOOO",
"OOOOOOOOOOOOOOOOOOOOOOOOOOOOOOOOOOOOOOOOOOO..........OOOOOOOOOOO",
"OOOOOOOOOOOOOOOOOOOOOOOOOOOOOOOOOOOOOOOOOOO............OOOOOOOOO",
"OOOOOOOOOOOOOOOOOOOOOOOOOOOOOOOOOOOOOOOOOOO............OOOOOOOOO",
"OOOOOOOOOOOOOOOOOOOOOOOOOOOOOOOOOOOOOOOOOOO.............OOOOOOOO",
"OOOOOOOOOOOOOOOOOOOOOOOOOOOOOOOOOOOOOOOOOOO.............OOOOOOOO",
"OO                          ..............................OOOOOO",
"OO                          ..............................OOOOOO",
"OO                          ................................OOOO",
"OO                          ................................OOOO",
"OO                          ..................................OO",
"OO                          ..................................OO",
"OO                          ..................................OO",
"OO                          ..................................OO",
"OO                          ..................................OO",
"OO                          ..................................OO",
"OO                          ..................................OO",
"OO                          ..................................OO",
"OO                          ..................................OO",
"OOXXXXXXXXXXXXXXXXXXXXXXXXXXXXXXXXXXooooooooooooooooooooooooooOO",
"OOXXXXXXXXXXXXXXXXXXXXXXXXXXXXXXXXXXooooooooooooooooooooooooooOO",
"OOXXXXXXXXXXXXXXXXXXXXXXXXXXXXXXXXXXooooooooooooooooooooooooooOO",
"OOXXXXXXXXXXXXXXXXXXXXXXXXXXXXXXXXXXooooooooooooooooooooooooooOO",
"OOXXXXXXXXXXXXXXXXXXXXXXXXXXXXXXXXXXooooooooooooooooooooooooooOO",
"OOXXXXXXXXXXXXXXXXXXXXXXXXXXXXXXXXXXooooooooooooooooooooooooooOO",
"OOXXXXXXXXXXXXXXXXXXXXXXXXXXXXXXXXXXooooooooooooooooooooooooooOO",
"OOXXXXXXXXXXXXXXXXXXXXXXXXXXXXXXXXXXooooooooooooooooooooooooooOO",
"OOXXXXXXXXXXXXXXXXXXXXXXXXXXXXXXXXXXooooooooooooooooooooooooooOO",
"OOXXXXXXXXXXXXXXXXXXXXXXXXXXXXXXXXXXooooooooooooooooooooooooooOO",
"OOXXXXXXXXXXXXXXXXXXXXXXXXXXXXXXXXXXooooooooooooooooooooooooooOO",
"OOOOXXXXXXXXXXXXXXXXXXXXXXXXXXXXXXXXooooooooooooooooooooooooooOO",
"OOOOXXXXXXXXXXXXXXXXXXXXXXXXXXXXXXXXooooooooooooooooooooooooooOO",
"OOOOOOXXXXXXXXXXXXXOOOOOOOOOOOOOOOOOOOOOOOOOOOOOOOOOOOOOOOOOOOOO",
"OOOOOOXXXXXXXXXXXXXOOOOOOOOOOOOOOOOOOOOOOOOOOOOOOOOOOOOOOOOOOOOO",
"OOOOOOOOXXXXXXXXXXXOOOOOOOOOOOOOOOOOOOOOOOOOOOOOOOOOOOOOOOOOOOOO",
"OOOOOOOOXXXXXXXXXXXOOOOOOOOOOOOOOOOOOOOOOOOOOOOOOOOOOOOOOOOOOOOO",
"OOOOOOOOOXXXXXXXXXXOOOOOOOOOOOOOOOOOOOOOOOOOOOOOOOOOOOOOOOOOOOOO",
"OOOOOOOOOXXXXXXXXXXOOOOOOOOOOOOOOOOOOOOOOOOOOOOOOOOOOOOOOOOOOOOO",
"OOOOOOOOOOOXXXXXXXXOOOOOOOOOOOOOOOOOOOOOOOOOOOOOOOOOOOOOOOOOOOOO",
"OOOOOOOOOOOXXXXXXXXOOOOOOOOOOOOOOOOOOOOOOOOOOOOOOOOOOOOOOOOOOOOO",
"OOOOOOOOOOOOOXXXXXXOOOOOOOOOOOOOOOOOOOOOOOOOOOOOOOOOOOOOOOOOOOOO",
"OOOOOOOOOOOOOXXXXXXOOOOOOOOOOOOOOOOOOOOOOOOOOOOOOOOOOOOOOOOOOOOO",
"OOOOOOOOOOOOOOOXXXXOOOOOOOOOOOOOOOOOOOOOOOOOOOOOOOOOOOOOOOOOOOOO",
"OOOOOOOOOOOOOOOXXXXOOOOOOOOOOOOOOOOOOOOOOOOOOOOOOOOOOOOOOOOOOOOO",
"OOOOOOOOOOOOOOOXXXXOOOOOOOOOOOOOOOOOOOOOOOOOOOOOOOOOOOOOOOOOOOOO",
"OOOOOOOOOOOOOOOOOXXOOOOOOOOOOOOOOOOOOOOOOOOOOOOOOOOOOOOOOOOOOOOO",
"OOOOOOOOOOOOOOOOOXXOOOOOOOOOOOOOOOOOOOOOOOOOOOOOOOOOOOOOOOOOOOOO",
"OOOOOOOOOOOOOOOOOOOOOOOOOOOOOOOOOOOOOOOOOOOOOOOOOOOOOOOOOOOOOOOO",
"OOOOOOOOOOOOOOOOOOOOOOOOOOOOOOOOOOOOOOOOOOOOOOOOOOOOOOOOOOOOOOOO",
"OOOOOOOOOOOOOOOOOOOOOOOOOOOOOOOOOOOOOOOOOOOOOOOOOOOOOOOOOOOOOOOO",
"OOOOOOOOOOOOOOOOOOOOOOOOOOOOOOOOOOOOOOOOOOOOOOOOOOOOOOOOOOOOOOOO"
};

static const char *ecaLogo48_xpm[] = {
"48 48 98 2 ",
"   c #EB060F",
".  c #EB0D16",
"X  c #E9001A",
"o  c #FF0218",
"O  c #FF091F",
"+  c #EC141D",
"@  c #EA0128",
"#  c #FF0023",
"$  c #ED1C24",
"%  c #EF3B42",
"&  c #FF3849",
"*  c #F0464D",
"=  c #009F24",
"-  c #00A129",
";  c #00A430",
":  c #0BA939",
">  c #0DA93B",
",  c #10AA3D",
"<  c #10B930",
"1  c #1EBE3C",
"2  c #17AD43",
"3  c #1BAE46",
"4  c #06A855",
"5  c #00BB5A",
"6  c #20B04A",
"7  c #22B14C",
"8  c #28B351",
"9  c #2FB657",
"0  c #32B75A",
"q  c #41BB65",
"w  c #40BC65",
"e  c #47BE6A",
"r  c #4BBF6D",
"t  c #01C14B",
"y  c #08C351",
"u  c #38CD71",
"i  c #4BC06D",
"p  c #50C171",
"a  c #FFEF00",
"s  c #FFF200",
"d  c #FFFA00",
"f  c yellow",
"g  c #FFF20F",
"h  c #FFF31B",
"j  c #FFFF1C",
"k  c #FFF322",
"l  c #FFF326",
"z  c #FFF427",
"x  c #FFF328",
"c  c #FFF42F",
"v  c #FFF431",
"b  c #FFF65B",
"n  c #FFF763",
"m  c #FFF874",
"M  c #FFFF7D",
"N  c #2D36C7",
"B  c #333CC8",
"V  c #362FD8",
"C  c #212DE3",
"Z  c #2732E5",
"A  c #2A25F5",
"S  c #423ADC",
"D  c #3942CA",
"F  c #3F48CC",
"G  c #5A61D3",
"H  c #636AD5",
"J  c #515AE8",
"K  c #78CF92",
"L  c #F58A8E",
"P  c #F48094",
"I  c #F68E92",
"U  c #F7A3A6",
"Y  c #8FDE9E",
"T  c #8DD6A3",
"R  c #90D7A5",
"E  c #91D8A6",
"W  c #A5DFB6",
"Q  c #AAE1BA",
"!  c #AFE3BE",
"~  c #B1E4BF",
"^  c #FFF980",
"/  c #FFF99B",
"(  c #A09DEE",
")  c #9CA1E5",
"_  c #9FA4E6",
"`  c #B1B5EA",
"'  c #D7F1DE",
"]  c #FFFCC6",
"[  c #FFFCCE",
"{  c #FFFDD2",
"}  c #FFFDDB",
"|  c #D8F1E0",
" . c #E1F5E6",
".. c #EAF8EE",
"X. c #FFFDE3",
"o. c #FFFDE7",
"O. c #FFFEF6",
"+. c none",
/* pixels */
"+.+.+.+.+.+.+.+.+.+.+.+.+.+.+.+.+.+.+.+.+.+.+.+.+.+.+.+.+.+.+.+.+.+.+.+.+.+.+.+.+.+.+.+.+.+.+.+.",
"+.+.+.+.+.+.+.+.+.+.+.+.+.+.+.+.+.+.+.+.+.+.+.+.+.+.+.+.+.+.+.+.+.+.+.+.+.+.+.+.+.+.+.+.+.+.+.+.",
"+.+.+.+.+.+.+.+.+.+.+.+.+.+.+.+.+.+.+.+.+.+.+.+.+.+.+.+.+.+.+.+.+.+.+.+.+.+.+.+.+.+.+.+.+.+.+.+.",
"+.+.+.+.+.+.+.+.+.+.+.+.+.+.+.+.+.+.+.+.+.+.+.+.+.+.+.+.+.+.+.+.9 0 +.+.+.+.+.+.+.+.+.+.+.+.+.+.",
"+.+.+.+.+.+.+.+.+.+.+.+.+.+.+.+.+.+.+.+.+.+.+.+.+.+.+.+.+.+.+.+.e 9 R ..+.+.+.+.+.+.+.+.+.+.+.+.",
"+.+.+.+.+.+.+.+.+.+.+.+.+.+.+.+.+.+.+.+.+.+.+.+.+.+.+.+.+.+.+.+.i 2 ; ' +.+.+.+.+.+.+.+.+.+.+.+.",
"+.+.+.+.+.+.+.+.+.+.+.+.+.+.+.+.+.+.+.+.+.+.+.+.+.+.+.+.+.+.+.+.i 3 , ~  .+.+.+.+.+.+.+.+.+.+.+.",
"+.+.+.+.+.+.+.+.+.+.+.+.+.+.+.+.+.+.+.+.+.+.+.+.+.+.+.+.+.+.+.+.i 3 7 : w +.+.+.+.+.+.+.+.+.+.+.",
"+.+.+.+.+.+.+.+.+.+.+.+.+.+.+.+.+.+.+.+.+.+.+.+.+.+.+.+.+.+.+.+.i 3 7 6 8 q  .+.+.+.+.+.+.+.+.+.",
"+.+.+.+.+.+.+.+.+.+.+.+.+.+.+.+.+.+.+.+.+.+.+.+.+.+.+.+.+.+.+.+.i 3 7 7 6 : !  .+.+.+.+.+.+.+.+.",
"+.+.+.+.+.+.+.+.+.+.+.+.+.+.+.+.+.+.+.+.+.+.+.+.+.+.+.+.+.+.+.+.i 3 7 7 7 7 : w +.+.+.+.+.+.+.+.",
"+.+.+.+.+.+.+.+.+.+.+.+.+.+.+.+.+.+.+.+.+.+.+.+.+.+.+.+.+.+.+.+.i 3 7 7 7 7 6 8 q  .+.+.+.+.+.+.",
"+.+.+.+.+.+.+.+.+.+.+.+.+.+.+.+.+.+.+.+.+.+.+.+.+.+.+.+.+.+.+.+.i 3 7 7 7 7 7 6 : Q +.+.+.+.+.+.",
"+.+.+.+.+.+.+.+.+.+.+.+.+.+.+.+.+.+.+.+.+.+.+.+.+.+.+.+.+.+.+.+.p 3 7 7 7 7 7 7 7 - +.+.+.+.+.+.",
"+.U % * * * * * * * * * * * * * * * * * & u r r r r r r r r r p 8 6 7 7 7 7 7 7 7 3 e Q +.+.+.+.",
"+.L   + + + + + + + + + + + + + + + + + o t 3 3 3 3 3 3 3 3 3 3 6 7 7 7 7 7 7 7 7 7 , K | +.+.+.",
"+.I . $ $ $ $ $ $ $ $ $ $ $ $ $ $ $ $ $ O y 7 7 7 7 7 7 7 7 7 7 7 7 7 7 7 7 7 7 7 7 7 2 = +.+.+.",
"+.I . $ $ $ $ $ $ $ $ $ $ $ $ $ $ $ $ $ O y 7 7 7 7 7 7 7 7 7 7 7 7 7 7 7 7 7 7 7 7 7 7 3 e W +.",
"+.I . $ $ $ $ $ $ $ $ $ $ $ $ $ $ $ $ $ O y 7 7 7 7 7 7 7 7 7 7 7 7 7 7 7 7 7 7 7 7 7 7 7 > T +.",
"+.I . $ $ $ $ $ $ $ $ $ $ $ $ $ $ $ $ $ O y 7 7 7 7 7 7 7 7 7 7 7 7 7 7 7 7 7 7 7 7 7 7 7 2 E +.",
"+.I . $ $ $ $ $ $ $ $ $ $ $ $ $ $ $ $ $ O y 7 7 7 7 7 7 7 7 7 7 7 7 7 7 7 7 7 7 7 7 7 7 7 2 E +.",
"+.I . $ $ $ $ $ $ $ $ $ $ $ $ $ $ $ $ $ O y 7 7 7 7 7 7 7 7 7 7 7 7 7 7 7 7 7 7 7 7 7 7 7 2 E +.",
"+.I . $ $ $ $ $ $ $ $ $ $ $ $ $ $ $ $ $ O y 7 7 7 7 7 7 7 7 7 7 7 7 7 7 7 7 7 7 7 7 7 7 7 2 E +.",
"+.P X @ @ @ @ @ @ @ @ @ @ @ @ @ @ @ @ @ # 5 4 4 4 4 4 1 1 1 1 1 1 1 1 1 1 1 1 1 1 1 1 1 1 < Y +.",
"+.M f f f f f f f f f f f f f f f f f f f d d d d d f A S S S S S S S S S S S S S S S S S V ( +.",
"+.^ s s s s s s s s s s s s s s s s s s s s s s s s f Z F F F F F F F F F F F F F F F F F B _ +.",
"+.^ s s s s s s s s s s s s s s s s s s s s s s s s f Z F F F F F F F F F F F F F F F F F B _ +.",
"+.^ s s s s s s s s s s s s s s s s s s s s s s s s f Z F F F F F F F F F F F F F F F F F B _ +.",
"+.^ s s s s s s s s s s s s s s s s s s s s s s s s f Z F F F F F F F F F F F F F F F F F B _ +.",
"+.^ s s s s s s s s s s s s s s s s s s s s s s s s f Z F F F F F F F F F F F F F F F F F B _ +.",
"+.^ s s s s s s s s s s s s s s s s s s s s s s s s f Z F F F F F F F F F F F F F F F F F B _ +.",
"+.m a s s s s s s s s s s s s s s s s s s s s s s s f Z F F F F F F F F F F F F F F F F F B _ +.",
"+.o.X.s s s s s s s s s s s s s s s s s s s s s s s f C D D D D D D D D D D D D D D D D D N ) +.",
"+.+.+.h h s s s s s s s s s z v c c c c c c c c c c j J H H H H H H H H H H H H H H H H H G ` +.",
"+.+.+.+.^ a s s s s s s s s X.+.+.+.+.+.+.+.+.+.+.+.+.+.+.+.+.+.+.+.+.+.+.+.+.+.+.+.+.+.+.+.+.+.",
"+.+.+.+.o.X.s s s s s s s s [ +.+.+.+.+.+.+.+.+.+.+.+.+.+.+.+.+.+.+.+.+.+.+.+.+.+.+.+.+.+.+.+.+.",
"+.+.+.+.+.+.g s s s s s s s [ +.+.+.+.+.+.+.+.+.+.+.+.+.+.+.+.+.+.+.+.+.+.+.+.+.+.+.+.+.+.+.+.+.",
"+.+.+.+.+.+.} a s s s s s s [ +.+.+.+.+.+.+.+.+.+.+.+.+.+.+.+.+.+.+.+.+.+.+.+.+.+.+.+.+.+.+.+.+.",
"+.+.+.+.+.+.O.} k s s s s s [ +.+.+.+.+.+.+.+.+.+.+.+.+.+.+.+.+.+.+.+.+.+.+.+.+.+.+.+.+.+.+.+.+.",
"+.+.+.+.+.+.+.+.b k s s s s [ +.+.+.+.+.+.+.+.+.+.+.+.+.+.+.+.+.+.+.+.+.+.+.+.+.+.+.+.+.+.+.+.+.",
"+.+.+.+.+.+.+.+.+.} a s s s [ +.+.+.+.+.+.+.+.+.+.+.+.+.+.+.+.+.+.+.+.+.+.+.+.+.+.+.+.+.+.+.+.+.",
"+.+.+.+.+.+.+.+.+.O.} x s s [ +.+.+.+.+.+.+.+.+.+.+.+.+.+.+.+.+.+.+.+.+.+.+.+.+.+.+.+.+.+.+.+.+.",
"+.+.+.+.+.+.+.+.+.+.+.l s s [ +.+.+.+.+.+.+.+.+.+.+.+.+.+.+.+.+.+.+.+.+.+.+.+.+.+.+.+.+.+.+.+.+.",
"+.+.+.+.+.+.+.+.+.+.+./ n s [ +.+.+.+.+.+.+.+.+.+.+.+.+.+.+.+.+.+.+.+.+.+.+.+.+.+.+.+.+.+.+.+.+.",
"+.+.+.+.+.+.+.+.+.+.+.+.{ a ] +.+.+.+.+.+.+.+.+.+.+.+.+.+.+.+.+.+.+.+.+.+.+.+.+.+.+.+.+.+.+.+.+.",
"+.+.+.+.+.+.+.+.+.+.+.+.+.+.+.+.+.+.+.+.+.+.+.+.+.+.+.+.+.+.+.+.+.+.+.+.+.+.+.+.+.+.+.+.+.+.+.+.",
"+.+.+.+.+.+.+.+.+.+.+.+.+.+.+.+.+.+.+.+.+.+.+.+.+.+.+.+.+.+.+.+.+.+.+.+.+.+.+.+.+.+.+.+.+.+.+.+.",
"+.+.+.+.+.+.+.+.+.+.+.+.+.+.+.+.+.+.+.+.+.+.+.+.+.+.+.+.+.+.+.+.+.+.+.+.+.+.+.+.+.+.+.+.+.+.+.+."
};

static const char *ecaLogo32_xpm[] = {
"32 32 121 2 ",
"   c #EA040E",
".  c #FF0008",
"X  c #EB0811",
"o  c #FF001B",
"O  c #EB161E",
"+  c #E70028",
"@  c #E6002C",
"#  c #E8002B",
"$  c #FF0021",
"%  c #EC1921",
"&  c #ED1E23",
"*  c #EB1E24",
"=  c #ED1C24",
"-  c #E90435",
";  c #ED272F",
":  c #ED282E",
">  c #009F24",
",  c #00A22B",
"<  c #02A532",
"1  c #0DAA3B",
"2  c #0FAA3C",
"3  c #11A83C",
"4  c #17C92A",
"5  c #1ECD29",
"6  c #1ACA2D",
"7  c #27CA3A",
"8  c #009F5C",
"9  c #16AC42",
"0  c #18AD44",
"q  c #1CAE47",
"w  c #1EAE4A",
"e  c #00A05D",
"r  c #24AF4B",
"t  c #22AF4D",
"y  c #24AF4C",
"u  c #20B04B",
"i  c #26B04A",
"p  c #22B14C",
"a  c #24B14D",
"s  c #2EB455",
"d  c #37B85D",
"f  c #3BB85E",
"g  c #48BE6B",
"h  c #00CF46",
"j  c #00D455",
"k  c #00C666",
"l  c #4CC06F",
"z  c #50C172",
"x  c #58C478",
"c  c #FFEF00",
"v  c #FFF100",
"b  c yellow",
"n  c #FFF10A",
"m  c #FFFF17",
"M  c #FFF21B",
"N  c #FFF22D",
"B  c #FFF339",
"V  c #FFF544",
"C  c #FFFF55",
"Z  c #FFF55C",
"A  c #FFF569",
"S  c #FFF771",
"D  c #FFF778",
"F  c #2B35C6",
"G  c #2E38C7",
"H  c #303AC5",
"J  c #010FF7",
"K  c #1702FF",
"L  c #131EFA",
"P  c #422BEA",
"I  c #472FE8",
"U  c #4E3BE8",
"Y  c #3A44CA",
"T  c #3C45CB",
"R  c #3E49CA",
"E  c #3F48CC",
"W  c #4149C9",
"Q  c #4952CE",
"!  c #FF6F81",
"~  c #F47F84",
"^  c #76CD8C",
"/  c #6BE5A1",
"(  c #7E84FC",
")  c #F38286",
"_  c #F48186",
"`  c #F5898C",
"'  c #86D29B",
"]  c #85D39C",
"[  c #85D49C",
"{  c #8DD7A3",
"}  c #9EDDB0",
"|  c #A1DDB2",
" . c #A7DFB8",
".. c #FFF883",
"X. c #FFF78A",
"o. c #FFF88B",
"O. c #FFF89A",
"+. c #FFF9B5",
"@. c #FFFAB9",
"#. c #9398E2",
"$. c #959AE2",
"%. c #9B9FE4",
"&. c #D6F0DE",
"*. c #D8F1DE",
"=. c #FFFBC1",
"-. c #FCE5EE",
";. c #FDEAEB",
":. c #FDEDEE",
">. c #EAF7EE",
",. c #EDFCED",
"<. c #FFFEE5",
"1. c #FFFFE8",
"2. c #EDEFFA",
"3. c #F0EDFF",
"4. c #EDF8F1",
"5. c #FDF4F5",
"6. c #F4FBF7",
"7. c #FFFEF3",
"8. c #F0F1FB",
"9. c #F6F6FC",
"0. c none",
/* pixels */
"0.0.0.0.0.0.0.0.0.0.0.0.0.0.0.0.0.0.0.0.0.0.0.0.0.0.0.0.0.0.0.0.",
"0.0.0.0.0.0.0.0.0.0.0.0.0.0.0.0.0.0.0.0.0.0.0.0.0.0.0.0.0.0.0.0.",
"0.0.0.0.0.0.0.0.0.0.0.0.0.0.0.0.0.0.0.0.0.x l 0.0.0.0.0.0.0.0.0.",
"0.0.0.0.0.0.0.0.0.0.0.0.0.0.0.0.0.0.0.0.0.[ <  .0.0.0.0.0.0.0.0.",
"0.0.0.0.0.0.0.0.0.0.0.0.0.0.0.0.0.0.0.0.0.[ < z &.0.0.0.0.0.0.0.",
"0.0.0.0.0.0.0.0.0.0.0.0.0.0.0.0.0.0.0.0.0.[ 3 1 d &.0.0.0.0.0.0.",
"0.0.0.0.0.0.0.0.0.0.0.0.0.0.0.0.0.0.0.0.0.[ 2 a 1 g &.0.0.0.0.0.",
"0.0.0.0.0.0.0.0.0.0.0.0.0.0.0.0.0.0.0.0.0.[ 2 p p 1 d *.0.0.0.0.",
"0.0.0.0.0.0.0.0.0.0.0.0.0.0.0.0.0.0.0.0.0.{ 2 p p p 1 f 0.0.0.0.",
"5.` ~ _ _ _ _ _ _ _ _ _ ) ! / ' ] ] ] ] { z 0 p p p a , | 0.0.0.",
";.O   X X X X X X X X X X . h 3 2 2 2 2 2 0 p p p p p p 9 ^ 0.0.",
":.; % = = = = = = = = = * o j y p p p p p p p p p p p p u > } 6.",
":.; % = = = = = = = = = * o j r p p p p p p p p p p p p p u q >.",
":.; % = = = = = = = = = * o j r p p p p p p p p p p p p p w s 4.",
":.: % & & & & & & & & & * o j i i i t t t t t t t t t t t w s 4.",
"-.- + # # # # # # # # # @ $ k 8 e 8 5 6 6 6 6 6 6 6 6 6 6 4 7 ,.",
"1.m b b b b b b b b b b b b b b b b K I I I I I I I I I I P U 3.",
"1.M v v v v v v v v v v v v v v v b L W R R R R R R R R R Y Q 8.",
"1.M v v v v v v v v v v v v v v v b L W E E E E E E E E E T Q 8.",
"1.M v v v v v v v v v v v v v v v b L W E E E E E E E E E T Q 8.",
"<.n v v v v v v v v v v v v v v v b L W E E E E E E E E E T Q 8.",
"7.+.c v v v v v v v v v v v v v c b J H G G G G G G G G G F Y 2.",
"0.0.V v v v v v v V D S S S S S S C ( $.$.$.$.$.$.$.$.$.$.#.%.9.",
"0.0.0.@.c v v v c O.0.0.0.0.0.0.0.0.0.0.0.0.0.0.0.0.0.0.0.0.0.0.",
"0.0.0.0.M v v v v X.0.0.0.0.0.0.0.0.0.0.0.0.0.0.0.0.0.0.0.0.0.0.",
"0.0.0.0.<.N v v v o.0.0.0.0.0.0.0.0.0.0.0.0.0.0.0.0.0.0.0.0.0.0.",
"0.0.0.0.0.=.N v v o.0.0.0.0.0.0.0.0.0.0.0.0.0.0.0.0.0.0.0.0.0.0.",
"0.0.0.0.0.0.<.B c o.0.0.0.0.0.0.0.0.0.0.0.0.0.0.0.0.0.0.0.0.0.0.",
"0.0.0.0.0.0.0...v X.0.0.0.0.0.0.0.0.0.0.0.0.0.0.0.0.0.0.0.0.0.0.",
"0.0.0.0.0.0.0.0.Z A 0.0.0.0.0.0.0.0.0.0.0.0.0.0.0.0.0.0.0.0.0.0.",
"0.0.0.0.0.0.0.0.0.0.0.0.0.0.0.0.0.0.0.0.0.0.0.0.0.0.0.0.0.0.0.0.",
"0.0.0.0.0.0.0.0.0.0.0.0.0.0.0.0.0.0.0.0.0.0.0.0.0.0.0.0.0.0.0.0."
};
