/* XPM */
static const char *ecaLogo64_xpm[] = {
"64 64 6 1",
" 	c None",
"1	c #FF0000",
"2	c #737300",
"3	c #00FF00",
"4	c #0000FF",
"5	c #FFFF00",
"                                                                ",
"                                                                ",
"                                                                ",
"                                                                ",
"                                           11                   ",
"                                           11                   ",
"                                           1111                 ",
"                                           1111                 ",
"                                           1111                 ",
"                                           111111               ",
"                                           111111               ",
"                                           11111111             ",
"                                           11111111             ",
"                                           1111111111           ",
"                                           1111111111           ",
"                                           111111111111         ",
"                                           111111111111         ",
"                                           1111111111111        ",
"                                           1111111111111        ",
"  333333333333333333333333  111111111111111111111111111111      ",
"  333333333333333333333333  111111111111111111111111111111      ",
"  333333333333333333333333  11111111111111111111111111111111    ",
"  333333333333333333333333  11111111111111111111111111111111    ",
"  333333333333333333333333  1111111111111111111111111111111111  ",
"  333333333333333333333333  1111111111111111111111111111111111  ",
"  333333333333333333333333  1111111111111111111111111111111111  ",
"  333333333333333333333333  1111111111111111111111111111111111  ",
"  333333333333333333333333  1111111111111111111111111111111111  ",
"  333333333333333333333333  1111111111111111111111111111111111  ",
"  333333333333333333333333  1111111111111111111111111111111111  ",
"                            1111111111111111111111111111111111  ",
"                            1111111111111111111111111111111111  ",
"  4444444444444444444444444444444444                            ",
"  4444444444444444444444444444444444                            ",
"  4444444444444444444444444444444444  555555555555555555555555  ",
"  4444444444444444444444444444444444  555555555555555555555555  ",
"  4444444444444444444444444444444444  555555555555555555555555  ",
"  4444444444444444444444444444444444  555555555555555555555555  ",
"  4444444444444444444444444444444444  555555555555555555555555  ",
"  4444444444444444444444444444444444  555555555555555555555555  ",
"  4444444444444444444444444444444444  555555555555555555555555  ",
"  4444444444444444444444444444444444  555555555555555555555555  ",
"  4444444444444444444444444444444444  555555555555555555555555  ",
"    44444444444444444444444444444444  555555555555555555555555  ",
"    44444444444444444444444444444444  555555555555555555555555  ",
"      4444444444444                                             ",
"      4444444444444                                             ",
"        44444444444                                             ",
"        44444444444                                             ",
"         4444444444                                             ",
"         4444444444                                             ",
"           44444444                                             ",
"           44444444                                             ",
"             444444                                             ",
"             444444                                             ",
"               4444                                             ",
"               4444                                             ",
"               4444                                             ",
"                 44                                             ",
"                 44                                             ",
"                                                                ",
"                                                                ",
"                                                                ",
"                                                                "
};
